<svg width="200" height="200" viewBox="0 0 200 200" fill="none" xmlns="http://www.w3.org/2000/svg">
<rect width="200" height="200" rx="100" fill="#0C0A1F"/>
<path d="M20.7 135.46C20.7 134.98 20.98 134.54 21.54 134.14C22.1 133.74 22.74 133.38 23.46 133.06C24.26 132.74 25.02 132.46 25.74 132.22C26.54 131.98 27.14 131.78 27.54 131.62C31.38 132.1 35.22 132.5 39.06 132.82C42.9 133.14 46.74 133.3 50.58 133.3C52.02 133.3 54.02 133.3 56.58 133.3C59.14 133.22 61.94 133.06 64.98 132.82C68.02 132.58 71.1 132.22 74.22 131.74C77.34 131.18 80.18 130.42 82.74 129.46C85.3 128.5 87.38 127.3 88.98 125.86C90.58 124.42 91.38 122.62 91.38 120.46C91.38 118.7 90.98 117.14 90.18 115.78C89.46 114.34 88.46 113.1 87.18 112.06C85.98 110.94 84.62 110.02 83.1 109.3C82.54 108.98 81.94 108.7 81.3 108.46C81.94 108.78 82.54 109.1 83.1 109.42C84.54 110.22 85.82 111.22 86.94 112.42C88.14 113.54 89.1 114.82 89.82 116.26C90.54 117.62 90.9 119.18 90.9 120.94C90.9 122.86 90.18 124.5 88.74 125.86C87.38 127.14 85.58 128.22 83.34 129.1C81.18 129.98 78.74 130.66 76.02 131.14C73.38 131.62 70.74 131.98 68.1 132.22C65.46 132.46 63.02 132.62 60.78 132.7C58.54 132.7 56.78 132.7 55.5 132.7C51.42 132.7 47.3 132.58 43.14 132.34C39.06 132.02 34.98 131.66 30.9 131.26C32.34 130.86 33.78 130.58 35.22 130.42C36.74 130.18 38.26 130.06 39.78 130.06C42.34 130.06 44.86 130.1 47.34 130.18C49.82 130.18 52.3 130.18 54.78 130.18C57.74 130.18 60.66 130.14 63.54 130.06C66.42 129.9 69.38 129.58 72.42 129.1L72.78 130.54C73.98 130.3 75.5 129.94 77.34 129.46C79.18 128.9 80.94 128.22 82.62 127.42C84.38 126.62 85.86 125.62 87.06 124.42C88.34 123.22 88.98 121.82 88.98 120.22C88.98 117.9 88.14 115.86 86.46 114.1C84.78 112.34 82.62 110.78 79.98 109.42C77.42 107.98 74.5 106.74 71.22 105.7C67.94 104.66 64.7 103.74 61.5 102.94C58.38 102.14 55.42 101.42 52.62 100.78C49.82 100.14 47.58 99.54 45.9 98.98V99.7C47.58 100.34 49.78 101.02 52.5 101.74C55.22 102.38 58.14 103.1 61.26 103.9C64.46 104.7 67.66 105.62 70.86 106.66C74.06 107.62 76.94 108.78 79.5 110.14C82.14 111.5 84.26 113.06 85.86 114.82C87.54 116.58 88.38 118.58 88.38 120.82C88.38 122.1 87.78 123.22 86.58 124.18C85.38 125.14 83.94 125.98 82.26 126.7C80.66 127.34 79.02 127.86 77.34 128.26C75.66 128.66 74.38 128.94 73.5 129.1C74.54 128.86 75.86 128.54 77.46 128.14C79.14 127.66 80.74 127.06 82.26 126.34C83.86 125.62 85.22 124.78 86.34 123.82C87.46 122.78 88.02 121.58 88.02 120.22C88.02 117.98 87.14 116.1 85.38 114.58C83.62 113.06 81.3 111.7 78.42 110.5C75.54 109.3 72.26 108.22 68.58 107.26C64.9 106.3 61.1 105.26 57.18 104.14C53.34 103.02 49.58 101.74 45.9 100.3C42.22 98.86 38.94 97.06 36.06 94.9C33.18 92.74 30.86 90.18 29.1 87.22C27.34 84.26 26.46 80.7 26.46 76.54C26.46 72.46 27.42 69.02 29.34 66.22C31.34 63.34 33.86 61.02 36.9 59.26C40.02 57.42 43.42 56.1 47.1 55.3C50.78 54.5 54.34 54.1 57.78 54.1C62.82 54.1 67.74 54.82 72.54 56.26C77.42 57.7 82.02 59.7 86.34 62.26C85.86 62.42 85.58 62.66 85.5 62.98C85.42 63.22 85.34 63.5 85.26 63.82C85.26 64.14 85.18 64.42 85.02 64.66C84.94 64.9 84.7 65.02 84.3 65.02C83.98 65.02 83.34 64.9 82.38 64.66C81.5 64.34 80.54 64.02 79.5 63.7C78.46 63.3 77.46 62.94 76.5 62.62C75.54 62.3 74.9 62.06 74.58 61.9L74.22 62.98C74.94 63.3 75.86 63.78 76.98 64.42C78.18 64.98 79.3 65.7 80.34 66.58C81.46 67.38 82.38 68.26 83.1 69.22C83.9 70.18 84.3 71.14 84.3 72.1C84.3 73.14 83.82 73.66 82.86 73.66C81.66 73.66 80.22 73.34 78.54 72.7C76.94 72.06 75.14 71.38 73.14 70.66C71.14 69.86 68.98 69.14 66.66 68.5C64.42 67.86 62.14 67.54 59.82 67.54C58.3 67.54 56.5 67.7 54.42 68.02C52.42 68.26 50.46 68.78 48.54 69.58C46.7 70.3 45.14 71.34 43.86 72.7C42.58 73.98 41.94 75.62 41.94 77.62C41.94 79.46 42.78 81.02 44.46 82.3C46.22 83.58 48.5 84.74 51.3 85.78C54.18 86.82 57.42 87.82 61.02 88.78C64.62 89.74 68.3 90.82 72.06 92.02C75.9 93.14 79.62 94.46 83.22 95.98C86.82 97.5 90.02 99.34 92.82 101.5C95.7 103.66 97.98 106.22 99.66 109.18C101.42 112.14 102.3 115.62 102.3 119.62C102.3 123.54 101.5 126.86 99.9 129.58C98.3 132.3 96.18 134.58 93.54 136.42C90.9 138.18 87.9 139.58 84.54 140.62C81.18 141.58 77.7 142.34 74.1 142.9C70.58 143.38 67.06 143.66 63.54 143.74C60.1 143.9 56.98 143.98 54.18 143.98H42.18C41.46 143.98 40.46 143.94 39.18 143.86C37.98 143.86 36.78 143.78 35.58 143.62C34.38 143.54 33.34 143.34 32.46 143.02C31.58 142.7 31.14 142.3 31.14 141.82L31.26 141.22C34.54 141.38 37.78 141.54 40.98 141.7C44.18 141.78 47.42 141.82 50.7 141.82C53.74 141.82 56.78 141.82 59.82 141.82C62.54 141.74 65.26 141.58 67.98 141.34C66.62 141.42 65.26 141.5 63.9 141.58C62.22 141.58 60.58 141.58 58.98 141.58H54.18C46.66 141.58 39.26 141.34 31.98 140.86C32.14 140.22 32.22 139.78 32.22 139.54C32.22 139.22 32.14 138.9 31.98 138.58C31.82 138.58 31.58 138.62 31.26 138.7C31.02 138.7 30.7 138.7 30.3 138.7C29.42 138.7 28.42 138.66 27.3 138.58C26.26 138.5 25.22 138.34 24.18 138.1C23.22 137.86 22.38 137.54 21.66 137.14C21.02 136.66 20.7 136.1 20.7 135.46ZM94.38 132.34C93.02 133.54 91.58 134.54 90.06 135.34C88.7 136.06 87.3 136.74 85.86 137.38C87.3 136.9 88.7 136.34 90.06 135.7C91.58 135.06 93.02 133.94 94.38 132.34ZM123.728 146.38C123.728 145.98 123.928 144.74 124.328 142.66C124.728 140.58 125.168 138.26 125.648 135.7C125.248 137.3 124.808 138.86 124.328 140.38C123.928 141.9 123.488 143.42 123.008 144.94C122.448 143.82 122.168 142.58 122.168 141.22C122.168 138.66 122.488 136.18 123.128 133.78C123.848 131.3 124.408 128.78 124.808 126.22H126.008C126.088 123.18 126.288 120.14 126.608 117.1C126.928 113.98 127.088 110.9 127.088 107.86C127.088 104.9 126.768 102.02 126.128 99.22C125.488 96.42 124.328 93.78 122.648 91.3L121.928 91.66C122.488 92.62 123.008 93.82 123.488 95.26C124.048 96.62 124.528 98.06 124.928 99.58C125.328 101.1 125.648 102.62 125.888 104.14C126.208 105.58 126.368 106.82 126.368 107.86C126.368 110.82 126.248 113.78 126.008 116.74C125.848 119.7 125.448 122.62 124.808 125.5C125.048 123.18 125.288 120.86 125.528 118.54C125.768 116.14 125.888 113.78 125.888 111.46C125.888 107.86 125.448 104.46 124.568 101.26C123.688 97.98 122.528 94.82 121.088 91.78C119.648 88.66 117.968 85.7 116.048 82.9C114.208 80.02 112.248 77.18 110.168 74.38C108.648 72.3 107.368 70.18 106.328 68.02C105.368 65.78 104.208 63.62 102.848 61.54C103.488 61.38 104.008 61.1 104.408 60.7C104.808 60.22 105.328 59.94 105.968 59.86C106.608 60.1 107.168 60.54 107.648 61.18C108.208 61.82 108.688 62.46 109.088 63.1L110.168 62.38C109.528 60.7 109.208 59.1 109.208 57.58C109.208 56.94 109.328 56.18 109.568 55.3C109.888 54.34 110.488 53.86 111.368 53.86C112.328 53.86 113.568 54.62 115.088 56.14C116.608 57.58 118.248 59.46 120.008 61.78C121.848 64.1 123.688 66.7 125.528 69.58C127.368 72.38 129.088 75.1 130.688 77.74C132.288 80.38 133.648 82.82 134.768 85.06C135.968 87.22 136.768 88.78 137.168 89.74L139.208 88.42L139.928 89.14C141.048 87.46 142.328 85.94 143.768 84.58C145.208 83.14 146.648 81.74 148.088 80.38C149.608 79.02 151.048 77.66 152.408 76.3C153.848 74.86 155.048 73.26 156.008 71.5L155.288 71.14C152.968 74.1 150.448 76.9 147.728 79.54C145.168 81.94 142.648 84.42 140.168 86.98C144.008 82.74 147.728 78.58 151.328 74.5C155.088 70.18 158.888 65.74 162.728 61.18L167.768 55.66C168.008 55.82 168.288 55.98 168.608 56.14C169.008 56.3 169.408 56.46 169.808 56.62C170.208 56.78 170.528 56.98 170.768 57.22C171.088 57.46 171.248 57.74 171.248 58.06C171.248 58.3 171.128 58.62 170.888 59.02C170.728 59.34 170.568 59.58 170.408 59.74L171.488 60.46C172.848 59.26 174.368 58.66 176.048 58.66C176.928 58.66 177.608 58.9 178.088 59.38C178.648 59.86 178.928 60.54 178.928 61.42C178.928 63.26 178.288 65.3 177.008 67.54C175.728 69.7 174.088 71.98 172.088 74.38C170.088 76.7 167.888 79.06 165.488 81.46C163.168 83.78 160.888 85.98 158.648 88.06C156.408 90.14 154.408 92.06 152.648 93.82C150.968 95.5 149.768 96.86 149.048 97.9C148.728 97.98 148.288 98.26 147.728 98.74C147.248 99.22 146.688 99.74 146.048 100.3C145.488 100.86 144.888 101.38 144.248 101.86C143.608 102.26 143.008 102.46 142.448 102.46L141.008 101.98C141.168 101.58 141.728 100.86 142.688 99.82C143.648 98.78 144.728 97.7 145.928 96.58C147.128 95.46 148.248 94.42 149.288 93.46C150.328 92.5 151.048 91.86 151.448 91.54C150.408 91.86 149.288 92.5 148.088 93.46C146.968 94.34 145.848 95.34 144.728 96.46C143.688 97.5 142.728 98.54 141.848 99.58C141.048 100.62 140.528 101.42 140.288 101.98C140.288 104.3 140.208 107.02 140.048 110.14C139.888 113.18 139.648 116.34 139.328 119.62C139.088 122.9 138.768 126.14 138.368 129.34C137.968 132.54 137.528 135.38 137.048 137.86C136.648 140.34 136.168 142.34 135.608 143.86C135.128 145.46 134.608 146.26 134.048 146.26C133.888 146.26 133.648 146.18 133.328 146.02C133.728 143.14 134.128 140.26 134.528 137.38C134.928 134.74 135.328 132.1 135.728 129.46L132.608 146.02L130.928 145.54C130.768 146.42 130.408 147.42 129.848 148.54C129.288 149.66 128.488 150.22 127.448 150.22C126.568 150.22 125.728 149.78 124.928 148.9C124.128 148.1 123.728 147.26 123.728 146.38ZM138.248 92.38C139.208 91.9 140.288 91.1 141.488 89.98C142.768 88.86 144.048 87.66 145.328 86.38C146.608 85.02 147.808 83.66 148.928 82.3C150.128 80.94 151.168 79.78 152.048 78.82C149.568 80.9 147.288 83.18 145.208 85.66C143.128 88.06 140.728 90.1 138.008 91.78L138.248 92.38ZM127.928 122.26C128.248 120.66 128.528 119.06 128.768 117.46C129.008 115.78 129.128 114.1 129.128 112.42C129.128 109.38 128.808 106.14 128.168 102.7C128.408 105.34 128.528 107.98 128.528 110.62C128.528 112.54 128.448 114.5 128.288 116.5C128.208 118.42 128.088 120.34 127.928 122.26ZM135.848 128.74C136.408 125.38 136.888 122.06 137.288 118.78C137.688 115.58 137.968 112.34 138.128 109.06C137.808 112.34 137.448 115.58 137.048 118.78C136.648 122.06 136.248 125.38 135.848 128.74ZM135.728 129.1V129.46C135.728 129.3 135.728 129.18 135.728 129.1Z" fill="#9A8FFF"/>
</svg>
