<svg width="71" height="70" viewBox="0 0 71 70" fill="none" xmlns="http://www.w3.org/2000/svg">
<path d="M43.8343 12.3156C44.629 12.6697 45.2505 13.3248 45.5623 14.1371C45.874 14.9493 45.8505 15.852 45.4968 16.6469L27.9968 56.0219C27.8276 56.4245 27.5797 56.7893 27.2677 57.0949C26.9557 57.4005 26.5859 57.6407 26.1798 57.8015C25.7738 57.9623 25.3397 58.0404 24.9031 58.0312C24.4665 58.0221 24.0361 57.9259 23.6371 57.7482C23.2381 57.5706 22.8786 57.3151 22.5797 56.9967C22.2808 56.6784 22.0484 56.3035 21.8962 55.8942C21.744 55.4848 21.6751 55.0492 21.6934 54.6129C21.7118 54.1766 21.817 53.7483 22.003 53.3531L39.503 13.9781C39.8571 13.1835 40.5122 12.5619 41.3244 12.2501C42.1367 11.9384 43.0394 11.9619 43.8343 12.3156ZM20.1787 22.7063C20.8284 23.2839 21.2224 24.0958 21.2741 24.9636C21.3258 25.8315 21.0309 26.6844 20.4543 27.335L13.638 35L20.4543 42.665C21.0321 43.316 21.3277 44.1698 21.276 45.0387C21.2243 45.9075 20.8296 46.7203 20.1787 47.2981C19.8563 47.5843 19.4808 47.8041 19.0736 47.9451C18.6663 48.0861 18.2352 48.1455 17.805 48.1199C16.9361 48.0682 16.1234 47.6735 15.5455 47.0225L6.79553 37.1788C6.26228 36.5783 5.96777 35.8031 5.96777 35C5.96777 34.1969 6.26228 33.4217 6.79553 32.8213L15.5455 22.9775C15.832 22.6541 16.1795 22.3905 16.5682 22.2018C16.9568 22.0131 17.3788 21.903 17.8101 21.8778C18.2414 21.8526 18.6734 21.9128 19.0814 22.055C19.4893 22.1971 19.8652 22.4185 20.1874 22.7063M50.8299 22.7063C51.1519 22.4198 51.5272 22.1996 51.9343 22.0582C52.3414 21.9168 52.7724 21.857 53.2026 21.8821C53.6329 21.9073 54.054 22.017 54.4418 22.205C54.8296 22.3929 55.1767 22.6554 55.463 22.9775L64.213 32.8213C64.7463 33.4217 65.0408 34.1969 65.0408 35C65.0408 35.8031 64.7463 36.5783 64.213 37.1788L55.463 47.0225C54.8852 47.6735 54.0724 48.0682 53.2035 48.1199C52.3347 48.1716 51.4808 47.876 50.8299 47.2981C50.179 46.7203 49.7842 45.9075 49.7325 45.0387C49.6808 44.1698 49.9764 43.316 50.5543 42.665L57.3574 35L50.5499 27.335C49.9733 26.6844 49.6784 25.8315 49.7301 24.9636C49.7817 24.0958 50.1801 23.2839 50.8299 22.7063Z" fill="white"/>
</svg>
