<svg width="216" height="204" viewBox="0 0 216 204" fill="none" xmlns="http://www.w3.org/2000/svg">
<path d="M63.2861 101.23L56.0305 108.164C52.0097 111.99 52.0097 118.224 56.0305 122.067L88.6794 153.266C92.6956 157.109 99.2189 157.109 103.24 153.266L110.495 146.35C111.337 147.237 62.2845 100.409 63.2861 101.23Z" fill="#21257C"/>
<path d="M127.416 131.314C129.776 136.592 134.205 148.479 132.256 163.711C130.133 180.464 121.52 191.7 117.732 196.125C122.178 195.032 151.414 187.346 166.176 159.081C178.395 135.652 172.589 113.551 171.016 108.156C156.469 115.877 141.945 123.593 127.416 131.314Z" fill="#4F3DFF"/>
<path d="M127.416 131.314C129.776 136.592 134.205 148.479 132.256 163.711C130.133 180.464 121.52 191.7 117.732 196.125C122.178 195.032 151.414 187.346 166.176 159.081C178.395 135.652 172.589 113.551 171.016 108.156C156.469 115.877 141.945 123.593 127.416 131.314Z" stroke="#21257C" stroke-width="15" stroke-linejoin="round"/>
<path d="M78.9719 85.0142C73.4507 82.7581 61.0122 78.5263 45.0744 80.3842C27.5448 82.417 15.7886 90.6502 11.1592 94.2702C12.3026 90.0207 20.3448 62.0789 49.9146 47.9704C74.4338 36.2926 97.5582 41.8409 103.203 43.3448C95.1244 57.2477 87.0507 71.1285 78.9719 85.0142Z" fill="#4F3DFF"/>
<path d="M78.9719 85.0142C73.4507 82.7581 61.0122 78.5263 45.0744 80.3841C27.5448 82.417 15.7886 90.6502 11.1592 94.2702C12.3026 90.0207 20.3448 62.0789 49.9146 47.9704C74.4338 36.2926 97.5582 41.8409 103.203 43.3448C95.1244 57.2477 87.0507 71.1285 78.9719 85.0142Z" stroke="#21257C" stroke-width="15" stroke-linejoin="round"/>
<path d="M207.951 40.7302C207.883 44.2674 207.576 48.0753 207.096 52.0187C207.022 52.6353 206.935 53.2648 206.825 53.8814C204.52 69.236 198.697 86.8772 185.545 103.526C159.205 136.88 121.396 143.797 112.888 145.2L64.4431 98.9001C65.9115 90.7723 73.1485 54.6332 108.048 29.4591C124.895 17.3179 142.659 11.7133 158.313 9.35664C159.543 9.18609 160.742 9.01555 161.941 8.8627C165.44 8.46933 168.802 8.19823 172 8.11054C189.118 7.41107 201.807 10.2311 204.895 10.9655C205.632 13.8161 208.399 25.2228 207.951 40.7302Z" fill="#E6F3FF"/>
<path d="M207.951 40.7302C207.883 44.2674 207.576 48.0753 207.096 52.0187C207.022 52.6353 206.935 53.2648 206.825 53.8814C204.52 69.236 198.697 86.8772 185.545 103.526C159.205 136.88 121.396 143.797 112.888 145.2L64.4431 98.9001C65.9115 90.7723 73.1485 54.6332 108.048 29.4591C124.895 17.3179 142.659 11.7133 158.313 9.35664C159.543 9.18609 160.742 9.01555 161.941 8.8627C165.44 8.46933 168.802 8.19823 172 8.11054C189.118 7.41107 201.808 10.2311 204.895 10.9655C205.632 13.8161 208.399 25.2228 207.951 40.7302Z" stroke="#21257C" stroke-width="15" stroke-miterlimit="10"/>
<path d="M116.694 79.7197L131.241 93.6231L120.948 103.46C116.927 107.303 110.404 107.303 106.401 103.46C102.38 99.617 102.38 93.3825 106.401 89.557L116.694 79.7197Z" fill="#4F3DFF"/>
<path d="M168.569 70.2764C168.569 84.7565 156.272 96.5083 141.122 96.5083C125.971 96.5083 113.675 84.7565 113.675 70.2764C113.675 55.7963 125.971 44.0444 141.122 44.0444C156.272 44.0444 168.569 55.7963 168.569 70.2764Z" fill="#E6F3FF"/>
<path d="M168.569 70.2764C168.569 84.7565 156.272 96.5083 141.122 96.5083C125.971 96.5083 113.675 84.7565 113.675 70.2764C113.675 55.7963 125.971 44.0444 141.122 44.0444C156.272 44.0444 168.569 55.7963 168.569 70.2764Z" stroke="#21257C" stroke-width="16" stroke-miterlimit="10"/>
<path d="M154.845 70.2763C154.845 77.5164 148.697 83.3925 141.122 83.3925C133.546 83.3925 127.398 77.5164 127.398 70.2763C127.398 63.0363 133.546 57.1602 141.122 57.1602C148.697 57.1602 154.845 63.0363 154.845 70.2763Z" fill="#4F3DFF"/>
<path d="M207.951 40.7307C207.883 44.2679 207.576 48.0758 207.096 52.0192C207.022 52.6358 206.936 53.2649 206.826 53.8815H206.309C180.307 53.8815 159.063 34.0373 158.313 9.35712C159.543 9.18658 160.742 9.01564 161.941 8.86279C165.44 8.46941 168.802 8.19871 172 8.11103C189.118 7.41156 201.807 10.2316 204.895 10.966C205.632 13.8166 208.399 25.2233 207.951 40.7307Z" fill="#E6F3FF"/>
<path d="M207.951 40.7307C207.883 44.2679 207.576 48.0758 207.096 52.0192C207.022 52.6358 206.936 53.2649 206.826 53.8815H206.309C180.307 53.8815 159.063 34.0373 158.313 9.35712C159.543 9.18658 160.742 9.01564 161.941 8.86279C165.44 8.46941 168.802 8.19871 172 8.11103C189.118 7.41156 201.807 10.2316 204.895 10.966C205.632 13.8166 208.399 25.2233 207.951 40.7307Z" stroke="#21257C" stroke-width="15" stroke-miterlimit="10"/>
<path d="M207.951 40.7307C207.398 40.7657 206.862 40.7657 206.309 40.7657C187.402 40.7657 172.073 26.1456 172 8.11103C189.118 7.41156 201.807 10.2316 204.895 10.966C205.632 13.8166 208.399 25.2233 207.951 40.7307Z" fill="#4F3DFF"/>
<path d="M207.951 40.7307C207.883 44.2679 207.576 48.0758 207.096 52.0192C207.022 52.6358 206.936 53.2649 206.826 53.8815H206.309C180.307 53.8815 159.063 34.0373 158.313 9.35712C159.543 9.18658 160.742 9.01564 161.941 8.86279C165.44 8.46941 168.802 8.19871 172 8.11103C189.118 7.41156 201.807 10.2316 204.895 10.966C205.632 13.8166 208.399 25.2233 207.951 40.7307Z" stroke="#21257C" stroke-width="15" stroke-miterlimit="10"/>
<path d="M64.6401 180.054C55.994 188.321 42.6095 193.122 38.4098 194.215C36.8181 194.639 35.4957 194.914 34.5854 195.102C36.9595 189.226 39.3382 183.35 41.6988 177.479C39.2149 180.67 34.6721 185.641 27.4902 189.773C19.9148 194.11 12.8195 195.561 8.62023 196.125C8.01167 191.701 7.60007 185.16 8.62023 177.374C10.0154 166.667 14.2151 153.293 25.4183 142.586C36.2461 132.237 53.8119 132.237 64.6401 142.586C75.4679 152.934 75.4679 169.705 64.6401 180.054Z" fill="#4F3DFF"/>
<path d="M63.7983 142.586C68.4277 147.01 67.1791 155.413 60.9941 161.32C54.8092 167.231 46.0217 168.424 41.3923 164.004C36.7443 159.562 37.9981 151.176 44.1784 145.248C50.3814 139.341 59.155 138.144 63.7983 142.586Z" fill="#E6F3FF"/>
<path d="M64.6401 180.054C55.994 188.321 42.6095 193.122 38.4098 194.215C36.8181 194.639 35.4957 194.914 34.5854 195.102C36.9595 189.226 39.3382 183.35 41.6988 177.479C39.2149 180.67 34.6721 185.641 27.4902 189.773C19.9148 194.11 12.8195 195.561 8.62023 196.125C8.01167 191.701 7.60007 185.16 8.62023 177.374C10.0154 166.667 14.2151 153.293 25.4183 142.586C36.2461 132.237 53.8119 132.237 64.6401 142.586C75.4679 152.934 75.4679 169.705 64.6401 180.054Z" stroke="#21257C" stroke-width="15" stroke-linejoin="round"/>
</svg>
