<svg width="71" height="70" viewBox="0 0 71 70" fill="none" xmlns="http://www.w3.org/2000/svg">
<path d="M27.3041 18.5209C21.3541 25.2 17.2708 34.7959 16.8916 35.7L10.2999 32.8709C8.40411 32.0542 7.93745 29.575 9.39578 28.1167L18.1749 19.3375C19.5458 17.9667 21.5291 17.3542 23.4541 17.7334L27.3041 18.5209ZM31.6499 48.1542C32.5249 49.0292 33.8083 49.2625 34.9166 48.7375C38.2999 47.1625 45.5624 43.4584 50.2583 38.7625C63.6458 25.375 63.7625 14.4667 62.9749 9.80004C62.8717 9.22681 62.5957 8.69885 62.1838 8.287C61.772 7.87515 61.244 7.59909 60.6708 7.49587C56.0041 6.70837 45.0958 6.82503 31.7083 20.2125C27.0124 24.9084 23.3374 32.1709 21.7333 35.5542C21.2083 36.6625 21.4708 37.975 22.3166 38.8209L31.6499 48.1542ZM51.9791 43.1959C45.2999 49.1459 35.7041 53.2292 34.7999 53.6084L37.6291 60.2C38.4458 62.0959 40.9249 62.5625 42.3833 61.1042L51.1624 52.325C52.5333 50.9542 53.1458 48.9709 52.7666 47.0459L51.9791 43.1959ZM26.5749 50.7792C26.8578 52.1918 26.7875 53.6523 26.3702 55.0312C25.953 56.41 25.2018 57.6646 24.1833 58.6834C21.9374 60.9292 14.9666 62.5917 10.4458 63.4667C8.43328 63.8459 6.65411 62.0667 7.03328 60.0542C7.90828 55.5334 9.54161 48.5625 11.8166 46.3167C12.8354 45.2982 14.0899 44.547 15.4688 44.1297C16.8477 43.7125 18.3082 43.6422 19.7208 43.925C23.1333 44.5667 25.9333 47.3667 26.5749 50.7792ZM38.4166 26.25C38.4166 23.0417 41.0416 20.4167 44.2499 20.4167C47.4583 20.4167 50.0833 23.0417 50.0833 26.25C50.0833 29.4584 47.4583 32.0834 44.2499 32.0834C41.0416 32.0834 38.4166 29.4584 38.4166 26.25Z" fill="white"/>
</svg>
