<svg width="71" height="70" viewBox="0 0 71 70" fill="none" xmlns="http://www.w3.org/2000/svg">
<path d="M35.4999 29.1667C38.5941 29.1667 41.5616 27.9375 43.7495 25.7496C45.9374 23.5617 47.1666 20.5942 47.1666 17.5C47.1666 14.4058 45.9374 11.4384 43.7495 9.25046C41.5616 7.06254 38.5941 5.83337 35.4999 5.83337C32.4057 5.83337 29.4383 7.06254 27.2503 9.25046C25.0624 11.4384 23.8333 14.4058 23.8333 17.5C23.8333 20.5942 25.0624 23.5617 27.2503 25.7496C29.4383 27.9375 32.4057 29.1667 35.4999 29.1667ZM16.5416 37.9167C18.4755 37.9167 20.3301 37.1485 21.6976 35.781C23.065 34.4136 23.8333 32.5589 23.8333 30.625C23.8333 28.6912 23.065 26.8365 21.6976 25.4691C20.3301 24.1016 18.4755 23.3334 16.5416 23.3334C14.6077 23.3334 12.7531 24.1016 11.3856 25.4691C10.0181 26.8365 9.24992 28.6912 9.24992 30.625C9.24992 32.5589 10.0181 34.4136 11.3856 35.781C12.7531 37.1485 14.6077 37.9167 16.5416 37.9167ZM61.7499 30.625C61.7499 32.5589 60.9817 34.4136 59.6142 35.781C58.2468 37.1485 56.3921 37.9167 54.4582 37.9167C52.5244 37.9167 50.6697 37.1485 49.3023 35.781C47.9348 34.4136 47.1666 32.5589 47.1666 30.625C47.1666 28.6912 47.9348 26.8365 49.3023 25.4691C50.6697 24.1016 52.5244 23.3334 54.4582 23.3334C56.3921 23.3334 58.2468 24.1016 59.6142 25.4691C60.9817 26.8365 61.7499 28.6912 61.7499 30.625ZM35.4999 32.0834C39.3677 32.0834 43.077 33.6198 45.8119 36.3547C48.5468 39.0896 50.0832 42.799 50.0832 46.6667V64.1667H20.9166V46.6667C20.9166 42.799 22.453 39.0896 25.1879 36.3547C27.9228 33.6198 31.6322 32.0834 35.4999 32.0834ZM15.0833 46.6667C15.0833 44.6455 15.3749 42.6942 15.9233 40.8509L15.4274 40.8917C12.9275 41.1662 10.6169 42.3539 8.9386 44.227C7.26035 46.1001 6.3326 48.5267 6.33325 51.0417V64.1667H15.0833V46.6667ZM64.6666 64.1667V51.0417C64.6669 48.4411 63.6747 45.9384 61.8925 44.0446C60.1102 42.1507 57.6724 41.0084 55.0766 40.8509C55.622 42.6942 55.9166 44.6455 55.9166 46.6667V64.1667H64.6666Z" fill="white"/>
</svg>
